<?xml version="1.0" encoding="UTF-8" ?>
<!DOCTYPE svg PUBLIC "-//W3C//DTD SVG 1.1//EN" "http://www.w3.org/Graphics/SVG/1.1/DTD/svg11.dtd">
<svg width="626pt" height="141pt" viewBox="0 0 626 141" version="1.1" xmlns="http://www.w3.org/2000/svg">
<g id="#ffffffff">
</g>
<g id="#000000ff">
<path fill="#000000" opacity="1.00" d=" M 170.09 9.06 C 173.65 9.24 177.26 8.65 180.79 9.23 C 187.42 13.12 190.86 20.52 193.48 27.44 C 195.68 33.38 196.86 39.67 197.07 46.00 C 272.76 46.00 348.44 46.00 424.13 46.00 C 424.12 48.00 424.12 50.00 424.13 52.00 C 422.08 52.00 420.04 52.00 418.00 52.00 C 418.00 58.89 417.98 65.79 418.01 72.68 C 408.79 68.04 397.76 66.60 387.81 69.66 C 384.99 70.61 381.81 71.67 380.16 74.35 C 378.52 76.80 379.70 81.10 383.06 81.10 C 390.10 81.37 396.07 76.43 403.07 76.37 C 408.53 76.11 414.73 77.16 418.40 81.62 C 422.32 85.78 421.52 92.78 417.75 96.77 C 413.53 101.12 407.59 103.35 401.70 104.31 C 404.48 106.65 407.88 108.64 411.67 107.81 C 413.43 110.80 415.27 113.74 416.94 116.78 C 413.03 118.22 408.23 118.83 404.61 116.35 C 400.36 113.50 399.26 107.96 395.56 104.62 C 389.83 103.96 383.56 103.85 378.75 100.23 C 376.19 98.43 375.23 94.65 377.01 91.98 C 378.97 90.28 381.82 90.32 384.14 91.19 C 389.39 93.05 394.22 96.46 399.96 96.62 C 405.90 96.71 411.96 95.15 416.95 91.89 C 418.82 90.67 419.13 88.37 418.87 86.32 C 414.42 82.41 408.31 85.03 403.31 86.17 C 397.89 87.26 392.31 90.07 386.76 87.99 C 379.09 85.23 372.87 76.23 375.93 68.07 C 378.64 62.41 385.28 60.51 390.98 59.48 C 397.72 58.12 404.48 59.87 411.00 61.48 C 411.00 58.32 411.00 55.16 411.00 52.00 C 388.33 52.00 365.67 52.00 343.00 52.00 C 343.00 58.89 342.98 65.79 343.01 72.68 C 333.79 68.04 322.76 66.60 312.82 69.66 C 309.99 70.61 306.81 71.67 305.16 74.35 C 303.53 76.78 304.69 81.08 308.03 81.09 C 315.07 81.39 321.04 76.44 328.04 76.37 C 333.50 76.11 339.69 77.14 343.37 81.58 C 347.31 85.73 346.54 92.73 342.78 96.74 C 338.56 101.11 332.60 103.35 326.70 104.31 C 329.48 106.65 332.89 108.64 336.67 107.81 C 338.43 110.80 340.27 113.74 341.94 116.78 C 338.03 118.21 333.24 118.84 329.62 116.36 C 325.37 113.51 324.25 108.00 320.59 104.63 C 314.87 103.95 308.60 103.86 303.78 100.25 C 301.22 98.47 300.22 94.70 302.00 92.02 C 304.14 90.04 307.39 90.41 309.90 91.45 C 314.86 93.40 319.58 96.50 325.08 96.63 C 330.99 96.69 337.01 95.13 341.96 91.88 C 343.83 90.66 344.13 88.37 343.88 86.33 C 341.51 84.19 338.16 83.86 335.15 84.52 C 329.39 85.73 323.76 87.51 317.99 88.67 C 308.73 89.71 300.01 81.06 300.10 71.94 C 300.06 67.77 302.98 64.29 306.53 62.45 C 315.68 57.70 326.42 58.60 336.00 61.48 C 336.00 58.32 336.00 55.16 336.00 52.00 C 317.33 52.00 298.67 52.00 280.00 52.00 C 280.00 55.59 279.99 59.17 280.03 62.76 C 281.35 63.18 282.68 63.60 284.00 64.02 C 284.00 66.22 284.00 68.42 284.00 70.63 C 275.63 67.42 265.47 66.56 257.65 71.64 C 255.35 72.96 253.78 76.84 256.23 78.73 C 261.61 81.89 267.92 80.01 273.74 80.27 C 273.75 81.84 273.76 83.40 273.77 84.97 C 267.68 85.32 261.26 84.90 255.60 87.57 C 252.33 89.06 250.58 93.75 253.45 96.47 C 257.84 100.45 264.32 100.36 269.82 99.48 C 278.96 98.09 286.61 92.06 291.92 84.75 C 291.85 89.46 291.86 94.17 291.91 98.88 C 281.64 105.73 268.32 106.38 256.69 103.11 C 252.09 101.56 247.40 99.56 243.94 96.05 C 241.21 93.27 241.57 88.63 243.87 85.71 C 245.95 83.09 249.00 81.54 251.90 80.00 C 249.51 78.56 246.50 77.46 245.32 74.72 C 244.21 71.15 246.24 67.22 249.43 65.50 C 255.88 61.69 263.64 61.12 270.96 60.91 C 271.01 57.94 271.00 54.97 271.00 52.00 C 246.33 52.00 221.67 52.00 197.00 52.00 C 197.00 57.50 197.00 62.99 197.00 68.49 C 201.61 63.36 207.64 58.40 215.00 59.04 C 228.57 58.93 238.30 73.36 236.82 86.04 C 235.97 93.89 230.51 100.11 224.78 105.06 C 221.85 103.25 218.87 101.54 215.93 99.75 C 220.13 94.62 225.64 90.01 227.19 83.28 C 228.41 78.09 228.55 72.09 225.33 67.57 C 223.05 64.04 218.14 63.29 214.39 64.59 C 207.93 66.64 202.35 71.26 198.89 77.05 C 197.41 79.40 197.00 82.24 196.99 84.98 C 196.98 91.66 197.02 98.35 196.99 105.04 C 193.68 103.18 190.35 101.38 187.00 99.61 C 187.00 83.74 187.00 67.87 187.00 52.00 C 176.67 52.00 166.33 52.00 156.00 52.00 C 156.01 66.69 155.97 81.37 156.01 96.06 C 155.95 98.13 156.89 100.17 158.44 101.52 C 161.17 102.98 164.34 100.97 165.57 98.46 C 167.85 94.20 167.72 89.17 168.08 84.48 C 171.60 86.57 175.10 88.71 178.64 90.77 C 176.41 95.77 173.13 100.61 168.08 103.09 C 162.98 105.49 156.32 106.06 151.67 102.38 C 148.30 99.67 145.80 95.47 145.99 91.04 C 146.01 78.03 146.00 65.01 146.00 52.00 C 130.67 52.00 115.33 52.00 100.00 52.00 C 100.00 55.08 100.00 58.17 100.01 61.25 C 108.29 59.46 117.57 57.16 125.48 61.45 C 130.71 64.23 131.35 70.68 131.75 75.94 C 132.25 85.61 131.91 95.31 131.98 104.99 C 129.17 103.80 126.40 102.56 123.59 101.38 C 123.43 100.74 123.11 99.48 122.95 98.85 C 115.62 104.33 105.80 106.56 96.95 103.92 C 92.10 102.36 87.27 98.97 85.86 93.83 C 84.73 90.23 86.32 86.40 88.74 83.71 C 96.90 74.09 111.65 71.40 123.00 76.51 C 123.00 74.90 123.01 73.29 123.01 71.68 C 121.06 69.72 118.98 67.43 116.03 67.17 C 107.23 66.19 98.66 69.04 90.63 72.33 C 90.62 70.98 90.61 69.63 90.60 68.28 C 91.40 67.58 92.20 66.88 93.00 66.19 C 93.00 61.46 93.00 56.73 93.00 52.00 C 84.33 52.00 75.67 52.00 67.00 52.00 C 67.00 54.50 67.00 56.99 67.00 59.49 C 72.06 61.50 77.32 64.47 79.38 69.83 C 82.09 77.05 81.47 85.68 77.12 92.16 C 74.04 97.03 69.30 100.51 64.55 103.61 C 63.34 104.23 61.93 105.69 60.62 104.44 C 57.15 101.93 54.28 98.70 51.21 95.74 C 60.13 94.75 68.46 90.07 74.39 83.41 C 77.09 80.21 78.94 75.64 77.48 71.50 C 75.96 67.80 71.70 66.47 68.06 66.06 C 61.48 65.67 54.38 67.91 50.19 73.22 C 47.13 76.78 45.61 81.33 44.53 85.82 C 40.78 84.31 37.06 82.72 33.31 81.19 C 33.53 76.38 36.32 72.44 38.20 68.20 C 36.85 65.79 33.31 66.16 30.90 66.00 C 23.10 65.74 15.75 71.63 14.17 79.24 C 13.33 84.53 15.84 89.74 19.40 93.51 C 23.21 97.49 27.42 101.04 31.32 104.92 C 25.16 102.87 19.48 99.60 14.31 95.71 C 10.36 92.69 6.78 88.91 4.98 84.20 C 2.62 77.62 4.64 69.61 10.06 65.12 C 16.07 60.02 24.63 57.61 32.31 59.83 C 36.20 60.84 39.62 63.00 43.09 64.96 C 47.66 62.98 52.12 60.65 56.99 59.44 C 57.00 56.96 57.00 54.48 57.00 52.00 C 38.67 52.00 20.33 52.00 2.00 52.00 C 2.00 50.00 2.00 48.00 2.00 46.00 C 50.00 46.00 98.00 46.00 146.00 46.00 C 146.01 40.01 145.97 34.01 146.03 28.02 C 149.37 30.24 152.67 32.52 156.01 34.74 C 155.99 38.49 156.00 42.25 156.00 46.00 C 166.35 46.00 176.70 46.00 187.05 46.00 C 187.32 31.90 181.11 17.93 170.09 9.06 M 103.58 81.74 C 98.34 83.03 93.80 86.47 90.76 90.87 C 89.91 92.28 88.82 93.88 89.36 95.61 C 90.62 97.99 93.45 98.75 95.94 98.94 C 105.49 99.56 115.25 95.87 121.98 89.07 C 123.49 87.74 123.10 85.59 121.47 84.57 C 116.19 81.36 109.61 80.16 103.58 81.74 Z" />
<path fill="#000000" opacity="1.00" d=" M 347.73 16.83 C 353.04 17.47 358.71 19.45 362.28 23.59 C 364.57 29.10 366.27 34.89 367.91 40.63 C 367.18 40.61 365.73 40.55 365.00 40.53 C 362.96 37.32 362.17 33.27 359.22 30.69 C 356.99 28.71 353.71 28.46 351.54 26.43 C 349.99 23.36 348.69 20.14 347.73 16.83 Z" />
<path fill="#000000" opacity="1.00" d=" M 356.00 59.00 C 359.00 59.00 362.00 59.00 365.00 59.00 C 365.00 74.34 364.99 89.68 365.01 105.02 C 362.03 103.33 359.02 101.71 356.00 100.11 C 356.00 86.41 356.00 72.70 356.00 59.00 Z" />
</g>
</svg>
