<?xml version="1.0" encoding="UTF-8" ?>
<!DOCTYPE svg PUBLIC "-//W3C//DTD SVG 1.1//EN" "http://www.w3.org/Graphics/SVG/1.1/DTD/svg11.dtd">
<svg width="210pt" height="420pt" viewBox="0 0 210 420" version="1.1" xmlns="http://www.w3.org/2000/svg">
<g id="#ffffffff">
</g>
<g id="#000000ff">
<path fill="#000000" opacity="1.00" d=" M 80.35 17.60 C 85.61 19.35 90.96 21.27 95.48 24.56 C 99.58 27.58 100.34 33.11 101.86 37.57 C 108.64 36.81 115.15 33.82 120.00 29.01 C 122.98 26.03 126.25 23.36 129.79 21.07 C 136.32 26.02 144.80 30.44 145.67 39.68 C 139.55 42.93 133.63 46.77 128.97 51.97 C 123.90 57.65 118.27 63.28 116.23 70.89 C 121.74 70.33 127.20 69.43 132.69 68.69 C 135.14 64.40 137.56 59.96 141.55 56.89 C 149.38 60.33 157.03 64.41 165.60 65.69 C 164.28 69.04 165.71 73.93 162.50 76.42 C 159.26 78.78 155.12 79.54 151.94 82.02 C 149.13 84.88 146.57 88.64 147.20 92.91 C 148.38 97.10 151.55 100.30 153.67 104.02 C 158.14 111.74 163.04 120.03 171.60 123.76 C 171.20 127.29 170.81 132.08 166.93 133.65 C 157.41 136.54 147.55 138.25 138.18 141.68 C 131.34 143.10 124.66 145.97 120.00 151.31 C 128.41 155.03 134.89 161.78 142.99 166.00 C 158.33 174.17 174.61 180.76 191.68 184.25 C 196.17 186.02 203.49 185.84 203.87 192.41 C 193.39 194.55 183.01 197.66 172.28 198.23 C 168.64 196.66 165.92 193.62 162.74 191.34 C 158.37 188.22 153.65 185.64 149.05 182.90 C 143.72 179.74 140.27 174.27 134.95 171.09 C 131.18 168.82 127.40 166.57 123.57 164.41 C 123.17 185.24 119.28 206.61 108.83 224.84 C 103.35 230.09 96.83 234.32 89.99 237.63 C 86.12 232.55 83.06 226.91 78.86 222.08 C 75.97 219.04 75.48 214.76 74.51 210.85 C 81.05 215.21 88.53 217.24 96.42 217.28 C 98.62 208.64 102.63 200.52 104.26 191.72 C 104.52 187.29 102.63 183.04 101.31 178.88 C 98.89 179.01 96.49 179.16 94.08 179.32 C 89.67 188.06 81.39 193.84 75.90 201.82 C 73.27 206.31 67.81 207.18 63.78 209.97 C 59.10 213.05 55.98 218.46 50.30 219.96 C 39.22 222.85 28.29 226.25 17.23 229.19 C 16.27 227.39 15.31 225.59 14.38 223.78 C 22.57 221.14 31.51 219.86 38.64 214.71 C 43.88 211.36 48.03 206.53 53.58 203.64 C 59.27 200.62 64.16 196.38 69.41 192.70 C 78.23 188.89 81.99 179.61 87.74 172.62 C 92.63 167.10 94.42 159.74 97.70 153.29 C 95.90 152.55 94.12 151.68 92.19 151.34 C 86.20 155.56 82.41 162.13 76.61 166.62 C 68.31 175.43 57.67 181.78 46.20 185.54 C 45.03 184.24 43.85 182.96 42.67 181.67 C 48.62 178.03 55.15 175.14 60.29 170.31 C 67.57 162.27 77.27 156.43 82.92 146.95 C 84.93 142.95 86.18 138.61 87.26 134.28 C 75.96 140.82 65.40 148.69 53.72 154.61 C 45.95 157.78 38.00 160.51 30.12 163.39 C 28.97 162.14 27.81 160.89 26.65 159.65 C 39.69 153.34 52.71 146.77 64.75 138.68 C 72.73 131.47 82.47 123.97 83.62 112.44 C 77.14 113.65 70.86 115.82 65.05 118.92 C 65.02 122.97 64.99 127.01 64.96 131.06 C 61.44 131.64 57.92 132.70 54.33 132.55 C 50.50 129.94 47.66 126.08 43.44 123.97 C 43.75 117.00 45.08 110.03 44.77 103.04 C 42.84 95.68 35.40 91.84 31.98 85.30 C 48.56 86.76 65.14 86.84 81.75 85.93 C 74.77 88.95 67.13 90.63 60.79 95.01 C 61.43 101.12 62.32 107.19 63.24 113.26 C 70.55 111.54 77.72 109.31 84.75 106.69 C 86.14 98.81 87.30 90.60 83.44 83.17 C 87.57 81.23 91.72 79.30 95.50 76.70 C 94.34 72.03 92.38 67.65 90.67 63.17 C 95.64 62.62 101.28 63.75 105.56 60.58 C 110.51 56.07 112.58 49.45 113.57 43.02 C 107.21 43.71 100.76 43.53 94.43 44.45 C 89.76 44.33 86.88 48.02 84.15 51.12 C 78.91 57.40 72.34 62.40 65.22 66.36 C 55.86 73.43 44.76 78.25 33.04 79.52 C 33.09 78.25 33.14 76.98 33.20 75.72 C 38.88 74.21 44.53 71.94 48.98 68.00 C 54.12 63.49 60.09 59.84 64.19 54.25 C 66.94 50.33 71.35 47.88 73.66 43.63 C 75.89 39.71 77.91 35.68 79.85 31.62 C 82.10 27.29 80.94 22.20 80.35 17.60 M 118.33 77.95 C 114.88 79.16 109.82 77.94 107.52 81.47 C 104.78 87.19 105.16 93.62 104.57 99.75 C 112.55 97.80 120.83 95.95 128.19 92.19 C 130.88 88.37 131.92 83.72 133.65 79.44 C 128.68 78.12 123.48 77.14 118.33 77.95 M 104.97 107.04 C 103.29 115.49 99.27 123.33 97.44 131.67 C 101.38 136.74 106.01 141.41 108.27 147.60 C 112.52 146.48 117.10 145.55 120.45 142.47 C 125.01 138.32 130.34 135.08 134.53 130.53 C 138.40 126.63 140.58 121.41 144.55 117.60 C 147.36 114.89 149.63 111.63 149.87 107.52 C 148.74 106.99 147.62 106.46 146.51 105.93 C 132.66 106.10 118.74 104.65 104.97 107.04 Z" />
<path fill="#000000" opacity="1.00" d=" M 210.00 46.78 C 207.96 46.32 207.96 43.68 210.00 43.21 L 210.00 46.78 Z" />
<path fill="#000000" opacity="1.00" d=" M 124.60 204.19 C 125.80 203.03 127.00 201.86 128.20 200.69 C 131.61 204.32 134.29 208.69 138.53 211.46 C 145.73 216.91 155.28 219.70 160.24 227.73 C 162.02 236.36 156.93 244.36 152.00 250.99 C 146.44 257.54 141.62 266.22 144.37 275.02 C 153.55 272.51 163.25 271.16 171.77 266.71 C 175.60 264.77 176.77 260.28 178.09 256.58 C 185.09 258.64 193.76 259.44 198.54 265.58 C 199.29 269.59 197.67 275.22 193.01 275.88 C 181.54 277.55 169.84 277.06 158.40 279.13 C 158.74 281.75 159.41 287.01 159.75 289.63 C 161.74 293.58 165.76 296.51 166.63 301.01 C 166.09 309.16 160.00 315.30 158.24 323.09 C 156.55 330.83 150.96 337.62 151.35 345.76 C 153.86 353.18 158.14 359.91 162.69 366.24 C 166.72 372.57 174.83 373.67 180.84 377.36 C 188.81 381.77 197.81 383.66 206.66 385.40 C 207.54 387.85 208.48 390.27 209.39 392.71 C 195.51 392.81 181.66 393.77 167.87 395.33 C 158.74 384.90 151.24 373.03 141.77 362.95 C 136.01 363.98 133.48 369.91 129.44 373.44 C 124.54 377.83 119.65 382.31 114.25 386.09 C 107.22 389.87 99.03 391.16 92.36 395.72 C 95.41 397.97 98.96 399.65 101.50 402.53 C 103.64 405.68 101.82 409.48 101.12 412.78 C 96.43 412.10 91.51 411.22 87.63 408.31 C 82.37 404.43 76.50 401.40 71.64 396.97 C 65.21 401.67 60.93 409.28 52.93 411.73 C 39.40 414.75 25.35 421.30 11.38 416.49 C 21.13 414.00 31.14 412.51 40.73 409.42 C 47.97 405.10 56.48 399.82 55.71 389.90 C 51.24 388.25 46.93 386.25 42.54 384.41 C 43.68 380.13 45.39 376.06 47.23 372.04 C 46.21 371.08 45.20 370.13 44.18 369.18 C 37.86 372.73 31.43 376.33 24.30 378.01 C 20.96 379.56 17.69 378.16 14.64 376.95 C 15.65 375.24 16.65 373.54 17.61 371.81 C 28.72 369.30 39.72 366.15 50.39 362.18 C 53.45 361.27 53.37 358.22 52.77 355.40 C 49.87 353.48 46.51 352.46 43.37 351.02 C 41.06 355.37 40.44 363.14 33.41 360.88 C 30.43 351.53 30.43 341.40 26.65 332.23 C 23.79 323.08 18.32 315.21 12.77 307.52 C 22.54 307.68 32.13 306.27 41.17 302.58 C 36.96 293.89 35.20 284.35 32.68 275.10 C 30.77 268.80 28.02 262.77 26.61 256.32 C 31.66 256.05 35.61 258.81 39.29 261.71 C 40.73 263.14 42.69 261.97 44.19 261.33 C 50.48 258.02 57.34 256.04 63.65 252.77 C 62.80 247.11 61.91 240.65 57.49 236.54 C 54.07 233.26 51.00 229.49 50.56 224.49 C 57.89 228.00 65.32 231.46 72.13 235.92 C 74.89 239.97 75.95 244.91 77.65 249.46 C 83.87 248.50 89.93 246.82 95.75 244.45 C 100.97 242.12 107.54 244.90 110.46 249.62 C 112.86 256.67 106.89 261.93 102.86 266.71 C 104.74 269.84 106.34 273.11 107.65 276.53 C 97.57 276.88 87.52 277.62 77.56 279.22 C 76.96 282.58 76.27 285.95 75.31 289.24 C 79.21 291.32 83.57 293.54 88.06 291.17 C 94.79 290.07 99.43 284.25 106.09 283.09 C 110.53 281.81 113.70 290.79 108.93 291.85 C 97.81 295.48 85.91 296.31 74.98 300.76 C 75.02 305.03 75.05 309.30 75.10 313.58 C 79.00 312.72 82.94 311.85 86.69 310.44 C 90.15 308.58 92.68 305.29 96.31 303.72 C 100.59 303.33 104.81 304.68 109.07 304.90 C 113.72 297.43 116.30 288.93 120.01 281.00 C 124.74 270.58 127.18 259.34 130.03 248.30 C 132.54 239.23 133.98 229.64 132.39 220.29 C 130.42 214.65 127.12 209.59 124.60 204.19 M 74.95 258.86 C 75.84 263.64 76.65 268.41 77.42 273.22 C 82.75 271.89 87.98 270.17 93.26 268.65 C 94.00 263.99 93.97 259.26 93.36 254.59 C 87.16 255.73 81.01 257.14 74.95 258.86 M 44.95 266.83 C 45.08 271.40 45.17 275.96 45.28 280.55 C 46.28 281.51 47.27 282.48 48.27 283.46 C 53.18 280.86 58.27 278.30 62.35 274.46 C 62.97 270.53 63.34 266.58 63.47 262.59 C 57.24 263.72 51.05 265.12 44.95 266.83 M 129.41 290.29 C 126.59 295.52 122.38 300.11 121.14 306.04 C 121.83 312.54 124.92 318.46 128.15 324.03 C 130.65 326.95 135.10 326.85 138.48 327.71 C 144.23 314.47 145.87 299.91 144.86 285.58 C 144.03 284.60 143.22 283.63 142.41 282.65 C 137.44 283.68 131.96 285.51 129.41 290.29 M 50.95 288.94 C 47.59 290.74 46.20 294.51 44.41 297.64 C 45.71 298.94 47.01 300.26 48.31 301.58 C 52.52 299.80 56.69 297.81 60.57 295.39 C 63.21 292.46 62.92 288.06 63.58 284.49 C 59.27 285.60 54.79 286.57 50.95 288.94 M 26.82 315.73 C 26.88 317.58 27.01 321.27 27.08 323.12 C 32.90 324.34 38.82 324.84 44.73 325.41 C 43.33 330.78 41.90 336.15 40.66 341.56 C 47.25 343.42 54.58 341.90 60.29 338.26 C 63.87 333.94 62.62 327.84 63.43 322.72 C 57.67 324.44 51.95 326.45 45.93 327.07 C 48.40 319.46 56.64 318.07 62.97 314.99 C 62.94 310.85 62.90 306.71 62.85 302.59 C 51.19 307.98 38.27 309.93 26.82 315.73 M 76.44 320.46 C 72.95 322.71 73.00 327.76 75.18 330.88 C 81.17 331.71 87.78 330.69 92.09 326.18 C 93.82 322.64 94.31 318.63 95.32 314.85 C 89.06 316.58 81.94 316.68 76.44 320.46 M 108.13 316.92 C 107.70 321.08 108.06 325.27 108.44 329.43 C 102.75 331.40 96.88 332.91 90.89 333.58 C 90.43 335.85 89.29 338.16 89.71 340.51 C 91.23 344.59 95.21 347.25 99.08 348.82 C 103.16 348.89 106.71 346.42 110.24 344.67 C 111.33 347.46 112.44 350.25 113.41 353.09 C 106.12 354.32 98.67 353.22 91.43 354.91 C 87.14 366.13 84.30 377.92 79.08 388.77 C 82.41 390.42 85.91 393.99 89.84 391.41 C 100.20 384.90 109.74 376.97 117.31 367.29 C 121.94 363.23 124.72 357.58 126.40 351.74 C 127.74 339.17 121.94 327.60 116.08 316.92 C 114.09 316.92 110.12 316.92 108.13 316.92 M 63.11 341.38 C 63.08 346.66 63.05 351.94 63.01 357.23 C 67.67 356.46 72.32 355.62 76.98 354.84 C 76.97 348.77 76.94 342.71 76.90 336.65 C 72.29 338.19 67.74 339.90 63.11 341.38 M 62.62 364.65 C 58.73 369.11 57.13 375.14 56.29 380.87 C 60.47 382.57 64.73 384.08 69.04 385.43 C 71.89 377.34 74.61 369.10 75.43 360.51 C 71.28 361.97 66.35 362.13 62.62 364.65 Z" />
</g>
</svg>
