<?xml version="1.0" encoding="UTF-8" ?>
<!DOCTYPE svg PUBLIC "-//W3C//DTD SVG 1.1//EN" "http://www.w3.org/Graphics/SVG/1.1/DTD/svg11.dtd">
<svg width="948pt" height="808pt" viewBox="0 0 948 808" version="1.1" xmlns="http://www.w3.org/2000/svg">
<g id="#293744ff">
<path fill="#293744" opacity="1.00" d=" M 0.00 0.00 L 0.02 0.00 C 0.01 0.02 0.00 0.05 0.00 0.07 L 0.00 0.00 Z" />
<path fill="#293744" opacity="1.00" d=" M 472.30 67.19 C 483.87 65.90 495.46 67.20 507.04 67.44 C 547.20 69.88 587.09 78.80 624.07 94.80 C 627.68 96.42 631.26 98.14 634.90 99.72 C 669.26 116.58 701.15 138.72 728.08 165.99 C 755.09 192.22 777.26 223.28 794.21 256.86 C 798.04 264.79 801.70 272.80 805.21 280.88 C 806.96 285.18 808.58 289.53 810.17 293.90 C 819.42 319.12 825.68 345.38 829.07 372.02 C 829.70 381.03 831.30 389.98 831.26 399.04 C 833.29 444.32 827.98 490.21 813.30 533.21 C 812.48 535.48 811.68 537.77 810.83 540.03 C 810.69 540.54 810.41 541.57 810.26 542.09 C 808.52 546.40 807.05 550.82 805.20 555.09 C 804.19 557.42 803.21 559.76 802.24 562.10 C 799.82 567.40 797.31 572.66 794.78 577.90 C 794.27 578.98 793.77 580.06 793.28 581.15 C 788.31 590.71 782.81 599.99 777.18 609.18 C 764.17 629.95 748.44 648.86 731.47 666.49 C 716.19 681.99 699.33 695.87 681.54 708.40 L 680.73 708.70 C 664.07 720.26 646.39 730.41 627.91 738.79 C 623.33 740.97 618.64 742.91 613.93 744.81 C 611.30 745.90 608.62 746.84 605.95 747.79 C 601.36 749.63 596.65 751.16 591.98 752.76 C 588.36 754.01 584.69 755.06 581.04 756.18 C 580.49 756.32 579.39 756.58 578.84 756.72 C 576.19 757.51 573.51 758.20 570.82 758.84 C 530.19 769.03 487.65 772.42 446.04 766.90 C 424.38 764.26 402.96 759.65 382.14 753.11 L 381.38 752.74 C 377.84 751.69 374.37 750.43 370.90 749.19 C 369.66 748.71 368.42 748.23 367.19 747.77 C 365.45 747.14 363.74 746.45 362.03 745.79 C 360.40 745.12 358.77 744.45 357.15 743.79 C 355.05 742.95 352.97 742.08 350.88 741.24 C 347.63 739.74 344.37 738.27 341.13 736.76 C 339.10 735.81 337.09 734.84 335.10 733.85 C 330.28 731.37 325.51 728.82 320.73 726.29 C 301.69 715.59 283.58 703.22 266.89 689.13 C 260.74 683.96 254.51 678.86 248.98 673.02 C 218.24 643.67 192.82 608.66 174.79 570.15 C 173.32 566.71 171.69 563.35 170.10 559.96 C 168.31 555.71 166.53 551.45 164.77 547.19 C 156.59 525.47 149.66 503.15 146.09 480.17 C 142.00 457.02 140.38 433.48 140.78 409.99 C 141.43 399.64 142.10 389.31 142.88 378.97 C 144.65 364.85 146.84 350.76 149.83 336.84 L 150.21 336.16 C 153.64 320.00 159.08 304.33 164.81 288.85 C 166.47 284.85 167.99 280.79 169.77 276.83 C 171.24 273.59 172.67 270.33 174.17 267.10 C 181.29 251.72 189.54 236.86 198.79 222.67 C 221.97 186.87 251.76 155.29 286.51 130.53 C 307.17 115.54 329.65 103.13 353.12 93.12 C 355.01 92.32 356.92 91.56 358.81 90.76 C 363.19 89.14 367.54 87.47 371.93 85.88 C 372.92 85.53 373.91 85.18 374.90 84.83 C 375.91 84.48 376.92 84.13 377.93 83.77 C 379.67 83.25 381.40 82.70 383.15 82.19 C 412.01 73.21 442.09 68.00 472.30 67.19 M 492.17 84.59 C 506.63 100.50 520.16 117.25 534.53 133.24 C 548.09 148.42 559.92 165.56 566.89 184.80 C 570.38 194.21 571.29 204.25 572.76 214.09 C 574.53 210.42 576.37 206.77 578.27 203.16 C 578.49 202.65 578.94 201.63 579.17 201.13 C 581.35 196.40 583.67 191.72 585.78 186.96 C 586.44 185.58 587.12 184.20 587.80 182.82 C 590.96 176.23 594.08 169.63 597.22 163.03 C 600.14 156.64 603.26 150.35 606.34 144.03 C 609.03 137.93 612.03 131.98 614.84 125.93 C 616.15 123.26 617.46 120.59 618.87 117.98 C 619.22 116.38 620.69 114.73 620.02 113.08 C 617.89 111.65 615.43 110.82 613.11 109.78 C 605.18 106.57 597.22 103.44 589.12 100.68 C 588.59 100.57 587.51 100.35 586.97 100.24 C 585.70 99.76 584.43 99.30 583.17 98.83 C 575.81 96.72 568.39 94.85 560.99 92.91 C 547.33 89.97 533.54 87.43 519.59 86.34 C 510.50 85.09 501.30 85.48 492.17 84.59 M 459.92 85.48 C 443.17 86.90 426.40 88.95 410.09 93.13 C 404.10 94.34 398.29 96.23 392.40 97.79 C 389.24 98.84 386.08 99.85 382.91 100.84 C 381.92 101.19 380.94 101.54 379.96 101.88 C 378.97 102.22 377.97 102.55 376.98 102.88 C 371.62 104.82 366.31 106.93 361.08 109.20 C 358.09 110.43 355.16 111.78 352.17 113.02 C 353.11 118.83 356.61 123.77 358.79 129.15 C 362.14 136.44 365.75 143.62 369.22 150.86 C 369.47 151.36 369.97 152.36 370.22 152.86 C 373.21 159.21 376.30 165.51 379.20 171.91 C 381.39 176.96 383.88 181.88 386.25 186.85 C 387.75 190.25 389.32 193.62 390.89 197.00 C 393.16 202.15 395.65 207.20 397.91 212.35 C 398.27 212.37 399.00 212.41 399.36 212.43 C 399.50 210.62 399.64 208.82 399.81 207.02 C 400.65 203.40 401.23 199.71 402.09 196.10 C 406.68 174.51 418.64 155.25 433.00 138.79 C 444.58 125.74 456.21 112.72 467.41 99.34 C 471.48 94.47 475.86 89.85 479.42 84.57 C 472.89 84.22 466.44 85.61 459.92 85.48 M 473.27 121.25 C 469.46 125.76 465.59 130.23 461.69 134.67 C 451.48 146.66 439.99 157.78 432.12 171.55 C 427.48 179.11 424.17 187.43 421.83 195.97 C 420.67 201.22 419.63 206.50 418.82 211.82 C 417.85 222.25 418.68 232.79 420.82 243.04 C 422.03 247.72 423.33 252.39 425.10 256.90 C 425.48 257.89 425.87 258.88 426.27 259.87 C 428.55 265.38 431.38 270.64 433.78 276.09 C 435.47 279.73 437.21 283.35 438.83 287.03 C 441.15 292.36 443.79 297.53 446.19 302.82 C 448.71 308.27 451.30 313.68 453.82 319.13 C 456.89 324.43 458.41 330.73 462.38 335.42 C 466.29 335.74 470.10 334.50 474.01 334.54 C 483.22 334.43 492.45 335.88 501.23 338.69 C 502.16 339.07 503.09 339.44 504.04 339.82 C 513.40 343.55 521.95 349.09 529.48 355.77 C 536.89 362.94 543.00 371.42 547.26 380.82 C 547.88 382.55 548.53 384.27 549.18 385.99 C 549.45 386.72 549.98 388.20 550.25 388.93 C 553.16 398.36 552.97 408.31 552.44 418.05 C 550.62 431.65 545.34 444.85 536.80 455.63 C 527.21 467.59 513.87 476.72 498.94 480.48 C 487.45 482.74 475.26 482.31 464.26 478.04 L 463.27 479.38 C 463.41 478.49 463.97 477.80 464.56 477.16 C 464.17 477.19 463.37 477.23 462.97 477.26 C 454.47 474.19 447.46 468.14 441.58 461.42 L 441.34 460.59 C 438.82 457.29 436.70 453.73 434.70 450.11 C 429.72 438.77 428.94 425.68 432.70 413.86 C 437.20 399.39 448.38 386.80 462.81 381.73 C 466.14 381.04 469.48 380.36 472.80 379.62 C 476.23 379.50 479.67 379.51 483.10 379.62 C 486.08 380.36 489.07 381.08 492.00 382.03 C 500.67 386.00 508.14 393.47 510.34 402.96 C 513.00 411.69 510.97 421.49 505.63 428.79 C 502.78 432.69 498.64 435.31 494.84 438.19 C 490.78 438.97 486.65 438.88 482.56 438.57 C 480.74 436.89 479.04 435.11 477.39 433.28 C 477.37 430.86 477.70 428.47 478.49 426.19 C 483.20 423.00 489.32 421.13 491.43 415.25 C 491.45 412.50 491.45 409.76 491.45 407.02 C 490.13 404.53 488.40 402.28 486.25 400.45 C 481.64 399.11 476.74 399.12 472.01 399.74 C 462.62 401.47 455.06 409.09 452.17 418.02 C 450.14 423.46 450.08 429.40 450.64 435.11 C 452.57 446.25 461.09 455.23 471.13 459.87 C 477.43 462.45 484.29 461.75 490.93 461.78 C 497.12 461.89 502.94 459.17 508.24 456.23 C 518.56 449.88 525.67 439.37 530.15 428.30 C 535.83 413.69 534.85 396.49 526.95 382.87 C 519.39 369.35 505.86 359.69 490.88 356.08 C 475.63 352.63 458.97 354.58 445.30 362.34 C 429.27 371.78 417.09 386.99 410.21 404.18 C 409.84 405.15 409.47 406.13 409.11 407.12 C 404.91 418.90 404.32 431.70 406.02 444.01 C 408.89 463.10 420.44 479.95 435.19 491.98 C 440.56 496.27 446.81 499.23 453.13 501.83 C 462.08 504.97 471.46 506.91 480.95 507.23 C 493.95 507.54 506.91 504.71 518.96 499.94 C 553.30 484.19 577.13 447.77 577.67 409.96 C 577.45 396.32 574.98 382.71 569.82 370.05 C 565.05 358.17 557.35 347.64 548.44 338.54 C 539.99 330.91 530.34 324.52 519.82 320.12 C 509.42 316.11 498.37 314.06 488.06 309.78 C 476.99 305.50 468.07 296.25 463.78 285.23 C 462.65 280.34 460.82 275.38 461.87 270.30 C 464.00 256.02 474.29 244.89 484.22 235.17 C 487.34 232.71 489.73 228.78 493.91 228.09 C 497.69 233.35 502.64 237.62 506.58 242.75 C 497.73 250.96 488.79 259.47 482.84 270.12 C 482.30 273.46 482.28 276.85 482.49 280.23 C 484.99 284.62 488.61 288.47 493.37 290.37 C 504.10 294.77 515.90 296.19 526.25 301.56 C 530.14 297.51 531.80 292.04 534.23 287.11 C 538.30 276.80 543.70 267.09 547.81 256.80 C 551.40 247.61 553.40 237.87 554.30 228.07 C 555.04 213.41 552.38 198.62 546.83 185.04 C 541.28 171.89 532.76 160.26 523.46 149.54 C 516.00 140.94 508.72 132.20 501.33 123.56 C 496.11 117.82 490.92 112.07 485.89 106.17 C 481.43 110.98 477.54 116.27 473.27 121.25 M 622.83 132.05 C 620.76 136.29 618.81 140.59 616.78 144.85 C 616.14 146.20 615.50 147.55 614.87 148.91 C 611.90 155.29 608.82 161.62 605.74 167.95 C 602.12 175.61 598.50 183.27 594.79 190.89 C 592.29 196.32 589.56 201.64 587.13 207.11 C 584.82 212.82 581.96 218.33 580.06 224.20 C 587.19 219.46 594.16 214.39 601.95 210.74 C 613.82 205.01 626.96 202.74 639.96 201.28 C 650.98 199.57 662.18 201.21 673.24 199.93 C 679.64 199.22 686.12 199.92 692.51 199.29 C 697.52 195.46 701.37 190.31 705.99 186.02 C 708.55 183.06 712.78 180.81 712.88 176.43 C 704.11 168.08 695.31 159.74 685.72 152.31 C 668.60 138.84 650.02 127.33 630.67 117.35 C 627.48 121.92 625.42 127.13 622.83 132.05 M 331.30 123.28 C 304.98 137.49 280.80 155.57 259.40 176.45 C 259.39 177.08 259.39 178.35 259.39 178.98 C 266.78 185.22 272.89 192.84 280.25 199.10 C 291.36 200.30 302.78 198.79 313.96 200.07 C 320.29 200.83 326.72 199.97 333.02 201.06 C 345.82 202.13 358.46 205.30 370.12 210.71 C 377.34 214.35 384.28 218.49 390.85 223.20 C 391.60 223.68 392.35 224.16 393.10 224.65 C 388.13 213.73 382.93 202.91 377.74 192.09 C 375.37 187.12 373.03 182.14 370.82 177.10 C 368.29 171.38 365.42 165.81 362.68 160.19 C 359.59 153.39 356.30 146.68 353.16 139.90 C 352.04 137.61 350.94 135.32 349.84 133.03 C 347.52 128.12 344.81 123.38 342.95 118.27 C 338.53 118.32 335.07 121.40 331.30 123.28 M 250.59 185.42 C 230.41 207.06 212.98 231.25 198.95 257.29 C 196.52 262.04 193.54 266.60 192.23 271.84 C 194.53 272.84 196.81 273.87 199.09 274.91 C 201.09 275.86 203.11 276.79 205.14 277.72 C 226.42 288.46 247.53 299.56 269.04 309.84 C 272.39 311.51 275.77 313.14 279.15 314.77 C 285.06 317.66 291.04 320.45 296.82 323.60 C 296.68 323.09 296.40 322.07 296.26 321.56 C 290.65 313.87 285.57 305.79 281.70 297.09 C 275.51 281.15 272.99 264.03 272.82 247.00 C 272.87 233.83 272.57 220.66 273.44 207.52 C 266.42 200.13 259.12 193.02 251.94 185.79 C 251.60 185.70 250.92 185.51 250.59 185.42 M 718.74 187.84 C 713.25 193.66 707.69 199.41 701.99 205.01 C 700.99 206.12 699.64 207.31 699.67 208.92 C 699.65 225.28 700.16 241.66 699.36 258.02 C 698.71 271.04 695.63 283.84 690.85 295.94 C 686.42 306.26 680.79 316.21 673.12 324.47 C 673.64 324.45 674.69 324.40 675.22 324.37 C 682.84 320.65 690.47 316.96 698.06 313.18 C 702.74 310.89 707.31 308.38 712.06 306.23 C 714.32 305.10 716.58 303.98 718.85 302.88 C 732.16 295.75 745.83 289.32 759.16 282.22 C 761.38 281.03 763.64 279.89 765.91 278.77 C 770.97 276.49 776.01 274.12 780.74 271.19 C 779.15 266.73 776.82 262.60 774.70 258.39 C 760.80 232.09 743.13 207.89 722.89 186.14 C 721.34 186.34 719.71 186.46 718.74 187.84 M 654.14 219.22 C 647.81 219.65 641.39 218.94 635.13 220.13 C 628.63 221.05 622.22 222.58 616.02 224.71 C 614.31 225.42 612.60 226.12 610.88 226.79 C 602.20 230.58 594.27 235.92 587.09 242.07 C 575.84 251.99 567.34 264.62 560.78 278.02 C 559.94 279.72 559.06 281.41 558.22 283.11 C 556.52 286.75 554.86 290.41 553.24 294.09 C 550.76 299.32 548.44 304.63 545.56 309.66 C 545.52 310.08 545.44 310.93 545.40 311.35 C 557.73 319.86 568.35 330.66 577.37 342.59 L 577.67 343.36 C 581.09 348.10 584.07 353.19 586.30 358.61 C 589.52 358.13 592.26 356.27 595.11 354.83 C 599.01 352.73 603.07 350.94 607.11 349.12 C 609.11 348.15 611.12 347.18 613.14 346.23 C 621.75 341.71 630.61 337.55 638.54 331.86 C 661.49 314.89 677.82 288.65 680.76 260.05 C 682.72 246.25 681.31 232.30 680.58 218.48 C 671.76 218.46 662.93 218.47 654.14 219.22 M 292.32 218.30 C 292.04 228.21 291.44 238.11 291.63 248.03 C 291.42 261.24 293.48 274.52 298.08 286.93 C 298.62 288.34 299.17 289.75 299.71 291.16 C 304.77 301.58 311.10 311.53 319.46 319.61 C 329.87 330.78 343.27 338.54 356.88 345.15 C 363.68 348.25 370.42 351.48 377.12 354.80 C 381.42 356.88 385.68 359.05 389.96 361.20 C 392.35 362.37 394.74 363.56 397.13 364.75 C 400.64 366.43 403.85 369.25 407.83 369.64 C 411.16 366.05 414.33 362.29 417.90 358.92 C 424.99 351.61 433.72 346.24 442.47 341.17 C 442.43 340.83 442.35 340.15 442.32 339.81 C 438.97 334.50 436.33 328.80 433.80 323.07 C 432.60 320.35 431.38 317.64 430.13 314.94 C 429.50 313.57 428.87 312.20 428.24 310.83 C 425.74 305.62 423.32 300.37 420.83 295.16 C 415.93 284.34 410.75 273.58 403.84 263.89 C 392.28 246.51 375.90 231.85 356.08 224.72 C 351.78 223.17 347.39 221.91 342.91 221.08 C 326.28 217.66 309.19 218.77 292.32 218.30 M 187.07 281.43 C 184.63 288.36 181.56 295.06 179.12 302.01 C 175.34 312.54 172.01 323.23 169.10 334.03 C 168.08 338.41 167.05 342.78 166.21 347.20 C 162.02 366.54 159.89 386.26 158.77 406.00 C 158.86 408.51 158.32 411.27 159.65 413.56 C 163.88 413.70 166.71 410.21 169.56 407.64 C 180.05 398.46 189.51 388.18 199.89 378.86 C 214.05 365.17 228.66 351.48 246.19 342.14 C 248.11 341.07 250.14 340.24 252.09 339.22 C 253.76 338.51 255.44 337.83 257.10 337.08 C 260.04 335.97 263.02 334.96 266.07 334.15 C 267.69 333.69 269.32 333.27 270.94 332.80 C 276.25 331.87 281.67 331.61 286.91 330.29 C 284.46 328.56 281.88 327.02 279.15 325.78 C 278.64 325.53 277.62 325.02 277.11 324.77 C 275.77 324.12 274.44 323.48 273.11 322.84 C 258.65 315.81 244.33 308.47 229.94 301.30 C 218.56 295.68 207.15 290.15 195.89 284.30 C 194.95 283.76 194.00 283.23 193.06 282.69 C 191.14 281.94 189.14 281.41 187.07 281.43 M 780.72 282.51 C 768.22 289.18 755.41 295.26 742.81 301.74 C 740.53 302.88 738.27 304.03 736.02 305.21 C 734.96 305.71 733.91 306.23 732.87 306.75 C 730.86 307.75 728.87 308.78 726.85 309.74 C 724.57 310.86 722.28 311.98 720.04 313.17 C 718.97 313.68 717.90 314.21 716.84 314.73 C 715.24 315.58 713.62 316.39 712.02 317.24 C 709.34 318.51 706.68 319.83 704.06 321.22 C 701.63 322.36 699.22 323.56 696.81 324.74 C 693.37 326.44 689.92 328.12 686.45 329.76 C 686.47 330.17 686.52 330.99 686.54 331.40 C 688.72 331.53 690.91 331.65 693.10 331.79 C 705.94 334.10 718.87 337.35 730.12 344.19 C 748.69 355.62 765.11 370.17 780.48 385.55 C 790.01 395.09 799.77 404.40 809.78 413.43 C 810.75 413.45 812.69 413.48 813.67 413.49 C 813.42 397.62 812.18 381.75 810.04 366.02 C 805.91 336.78 797.18 308.41 786.05 281.13 C 784.20 281.34 782.34 281.56 780.72 282.51 M 264.89 354.84 C 262.29 355.94 259.69 357.05 257.08 358.12 C 254.23 359.59 251.45 361.17 248.66 362.76 C 237.85 369.21 228.34 377.56 219.38 386.34 C 208.89 395.48 199.45 405.74 189.17 415.09 C 189.36 416.32 189.00 417.89 190.18 418.74 C 209.72 436.53 226.64 457.72 249.79 471.13 C 255.51 474.46 261.63 477.00 267.83 479.26 C 289.68 485.37 313.71 485.74 334.86 476.81 C 337.65 475.69 340.39 474.48 343.13 473.25 C 344.73 472.43 346.35 471.66 347.96 470.86 C 349.69 469.97 351.43 469.11 353.16 468.23 C 357.12 466.13 361.13 464.12 365.18 462.20 C 367.77 460.77 370.42 459.46 373.09 458.20 C 377.39 456.10 381.73 454.07 386.11 452.13 C 386.73 451.89 387.99 451.41 388.62 451.17 C 385.51 435.56 385.36 419.19 389.74 403.80 C 391.35 397.59 394.41 391.91 396.70 385.95 C 394.10 384.66 391.49 383.42 388.84 382.25 C 382.50 379.31 376.24 376.20 369.92 373.22 C 367.62 372.09 365.33 370.98 363.05 369.85 C 354.82 365.36 346.57 360.88 337.97 357.17 C 336.97 356.79 335.98 356.43 334.99 356.08 C 332.66 355.31 330.33 354.57 328.02 353.75 C 307.53 347.62 285.11 347.67 264.89 354.84 M 662.86 349.81 C 653.38 351.25 644.04 353.70 635.09 357.15 C 623.89 362.08 613.31 368.32 602.09 373.21 C 599.21 374.49 596.36 375.83 593.44 377.00 C 592.91 381.03 594.26 384.92 595.23 388.77 C 596.70 399.46 597.35 410.34 596.08 421.09 C 594.86 431.32 592.22 441.36 588.75 451.05 C 588.69 451.69 588.64 452.34 588.59 453.00 C 592.38 455.00 596.17 456.99 600.09 458.72 C 610.52 463.57 620.66 469.01 631.11 473.82 C 632.73 474.50 634.37 475.16 636.01 475.84 C 645.20 479.47 654.78 482.24 664.64 483.24 C 679.54 484.36 694.91 483.49 708.91 477.86 C 711.66 476.69 714.40 475.47 717.16 474.28 C 725.37 470.19 732.91 464.88 739.92 458.98 C 755.54 446.55 768.78 431.51 783.44 418.03 C 783.65 417.56 784.09 416.62 784.30 416.15 C 774.44 406.53 764.88 396.61 755.00 387.01 C 741.32 374.23 726.85 361.51 709.07 354.85 C 694.28 349.71 678.39 348.51 662.86 349.81 M 805.18 424.23 C 793.25 434.21 782.81 445.83 771.18 456.14 C 757.53 468.97 743.52 481.91 726.93 490.85 C 725.30 491.62 723.67 492.39 722.05 493.18 C 720.40 493.85 718.76 494.53 717.13 495.22 C 715.13 495.86 713.14 496.52 711.16 497.19 C 702.24 499.56 693.08 501.13 683.82 500.73 C 683.72 501.11 683.53 501.88 683.43 502.26 C 686.88 503.97 690.38 505.59 693.87 507.22 C 698.35 509.26 702.64 511.71 707.11 513.78 C 730.73 524.89 753.51 537.68 777.14 548.76 C 780.11 550.34 783.15 551.82 786.32 552.96 C 789.35 546.85 791.51 540.37 793.84 533.97 C 799.43 518.17 804.16 502.03 807.26 485.54 C 810.92 464.61 813.81 443.40 813.61 422.11 C 810.73 422.41 807.55 422.28 805.18 424.23 M 158.60 422.56 C 159.09 456.26 164.17 490.04 174.86 522.05 C 178.21 532.37 182.42 542.38 186.15 552.55 C 187.65 552.56 189.22 552.65 190.55 551.81 C 196.73 548.58 202.95 545.45 209.16 542.28 C 210.08 541.77 211.00 541.27 211.93 540.77 C 213.67 539.92 215.41 539.06 217.15 538.21 C 219.78 536.83 222.44 535.49 225.12 534.19 C 238.68 527.32 252.17 520.32 265.86 513.72 C 268.28 512.54 270.69 511.35 273.11 510.19 C 275.38 509.04 277.66 507.90 279.94 506.77 C 282.42 505.46 284.89 504.13 287.41 502.91 C 287.45 502.19 287.50 501.47 287.55 500.76 C 279.18 501.07 270.92 499.46 262.92 497.13 C 259.21 495.92 255.53 494.61 251.89 493.21 C 247.32 491.09 242.93 488.62 238.52 486.18 C 236.53 484.86 234.52 483.57 232.51 482.27 C 220.99 473.99 210.08 464.92 200.02 454.92 C 190.01 444.94 179.77 435.20 169.66 425.33 C 166.82 422.36 162.34 422.84 158.60 422.56 M 391.36 471.84 C 379.11 477.63 367.22 484.16 354.86 489.74 C 352.61 490.92 350.35 492.08 348.08 493.20 C 328.47 502.56 311.52 517.90 301.63 537.37 C 295.63 549.71 292.03 563.28 291.27 576.99 C 291.07 590.48 291.04 603.99 291.59 617.47 C 305.40 617.79 319.22 617.61 333.03 617.64 C 343.66 617.25 354.31 615.33 364.18 611.28 C 372.29 607.45 379.93 602.61 386.79 596.82 C 401.48 584.43 411.78 567.65 419.25 550.12 C 419.73 549.01 420.22 547.92 420.72 546.84 C 425.11 538.01 429.10 529.00 433.48 520.17 C 434.32 518.57 434.64 516.78 434.95 515.03 C 417.95 504.47 402.85 489.76 394.72 471.25 C 393.57 471.31 392.44 471.51 391.36 471.84 M 535.45 512.80 C 541.63 525.53 547.79 538.28 553.77 551.11 C 558.02 560.83 562.99 570.27 569.21 578.89 C 575.45 588.06 583.70 595.65 592.49 602.33 C 598.02 606.07 603.94 609.18 610.09 611.78 C 611.35 612.27 612.62 612.75 613.90 613.27 C 622.00 616.00 630.54 617.22 639.06 617.65 C 652.86 617.63 666.66 617.67 680.46 617.59 C 681.66 610.12 681.34 602.55 681.51 595.02 C 681.50 589.01 681.75 582.98 681.34 576.98 C 681.12 573.75 679.95 570.29 681.58 567.27 C 681.18 567.05 680.37 566.61 679.97 566.39 C 676.83 544.46 665.71 523.61 649.04 508.95 C 636.78 497.96 621.49 491.34 606.86 484.17 C 602.84 482.28 598.86 480.29 594.90 478.28 C 589.70 476.00 585.10 471.77 579.32 471.27 C 568.43 488.50 553.21 502.83 535.45 512.80 M 673.84 509.14 C 677.13 513.80 680.99 518.07 683.85 523.05 C 690.90 534.27 695.23 547.03 697.65 560.00 C 700.84 579.17 699.48 598.68 699.76 618.01 C 700.06 622.11 698.63 627.01 701.70 630.38 C 707.75 637.06 714.26 643.31 720.63 649.69 C 721.40 649.63 722.17 649.57 722.96 649.52 C 744.96 626.19 763.79 599.79 777.89 570.95 C 779.31 568.15 780.83 565.25 780.77 562.01 C 770.59 556.79 760.70 551.03 750.28 546.28 C 734.04 537.81 717.57 529.79 701.11 521.78 C 694.82 518.75 688.46 515.89 682.30 512.62 C 679.60 511.18 676.83 509.84 673.84 509.14 M 282.18 516.91 C 273.86 521.05 265.54 525.18 257.18 529.25 C 256.11 529.76 255.04 530.29 253.97 530.83 C 251.71 531.97 249.43 533.08 247.15 534.18 C 241.28 536.74 235.82 540.12 229.98 542.72 C 228.35 543.54 226.71 544.33 225.10 545.17 C 224.04 545.70 223.00 546.25 221.94 546.76 C 220.33 547.58 218.75 548.43 217.14 549.24 C 213.78 550.83 210.44 552.47 207.15 554.21 C 201.85 556.81 196.73 559.78 191.29 562.08 C 191.85 563.72 192.37 565.37 192.99 567.00 C 195.00 570.64 196.75 574.42 198.70 578.10 C 204.48 588.50 210.51 598.79 217.25 608.61 C 227.36 623.06 238.50 636.81 250.82 649.44 C 251.19 649.45 251.93 649.46 252.30 649.47 C 258.54 643.28 264.63 636.94 271.03 630.92 C 271.92 629.41 272.92 627.88 273.08 626.09 C 272.59 611.41 272.78 596.71 272.75 582.02 C 272.59 562.46 277.15 542.81 286.37 525.54 C 289.09 520.36 293.06 515.98 295.84 510.83 C 291.00 512.18 286.71 514.83 282.18 516.91 M 504.97 523.13 C 500.76 523.74 496.56 524.39 492.44 525.44 C 492.44 525.69 492.45 526.20 492.45 526.46 C 479.50 527.19 466.65 525.06 454.03 522.39 C 450.04 531.74 445.41 540.80 441.25 550.08 C 440.42 551.68 439.65 553.32 438.84 554.94 C 435.65 561.99 432.52 569.06 429.24 576.06 C 428.20 578.38 427.17 580.71 426.15 583.04 C 418.91 599.97 416.35 618.94 419.64 637.10 C 421.13 644.21 423.26 651.20 426.16 657.86 C 433.50 672.12 444.88 683.67 455.98 695.02 C 466.20 704.83 475.50 715.66 486.63 724.49 C 487.40 724.45 488.17 724.43 488.95 724.41 C 491.12 722.44 493.34 720.54 495.35 718.41 C 503.04 709.77 510.62 701.02 518.81 692.84 C 530.37 680.11 543.07 667.50 548.93 650.90 C 555.76 632.86 556.13 612.71 550.53 594.30 C 547.21 583.89 542.46 574.02 537.81 564.16 C 536.01 560.03 534.02 556.00 532.16 551.91 C 528.96 544.84 525.42 537.93 522.23 530.86 C 520.54 527.30 518.91 523.72 517.23 520.16 C 513.10 520.97 509.05 522.12 504.97 523.13 M 390.26 617.23 C 384.27 621.37 378.15 625.36 371.46 628.28 C 359.85 634.02 346.82 635.86 334.03 636.57 C 316.65 636.72 299.27 636.54 281.90 636.65 C 279.43 636.43 277.67 638.44 276.01 639.95 C 270.41 645.54 264.85 651.17 259.42 656.94 C 259.46 657.44 259.55 658.42 259.59 658.91 C 283.27 681.42 309.82 701.07 339.07 715.75 C 339.57 716.10 340.57 716.81 341.07 717.17 C 342.39 717.36 343.72 717.53 345.06 717.68 C 348.43 709.60 352.75 701.96 356.18 693.91 C 360.22 684.49 364.95 675.40 369.20 666.08 C 370.84 662.42 372.54 658.78 374.19 655.13 C 378.03 647.01 382.19 639.04 385.83 630.83 C 386.84 628.54 387.85 626.26 388.80 623.95 C 389.57 622.59 390.27 621.20 391.04 619.86 C 391.33 618.51 391.47 617.12 391.80 615.79 C 391.41 616.15 390.64 616.87 390.26 617.23 M 581.14 616.71 C 581.31 617.79 581.49 618.89 581.69 619.99 C 583.60 623.60 585.16 627.38 586.84 631.11 C 589.63 637.51 592.74 643.77 595.77 650.07 C 596.44 651.39 597.11 652.72 597.79 654.06 C 601.92 662.96 606.02 671.88 610.32 680.71 C 611.48 683.15 612.64 685.59 613.77 688.05 C 618.01 697.09 622.48 706.03 626.87 715.01 C 627.13 715.72 627.66 717.14 627.93 717.85 C 632.10 717.56 635.60 715.07 639.23 713.24 C 666.43 698.74 691.60 680.36 713.48 658.63 C 712.00 656.14 710.10 653.94 707.99 651.97 C 702.77 647.05 698.50 641.26 693.30 636.34 C 684.87 636.35 676.44 636.79 668.01 636.62 C 651.37 636.35 634.47 637.78 618.12 633.87 C 613.68 632.87 609.34 631.50 605.11 629.85 C 603.04 628.96 600.99 628.06 598.93 627.18 C 592.83 623.98 587.04 620.25 581.14 616.71 M 397.21 628.49 C 395.22 633.85 392.45 638.86 390.18 644.11 C 388.73 647.37 387.26 650.63 385.80 653.90 C 383.64 658.99 381.00 663.85 378.75 668.89 C 374.50 678.26 370.13 687.57 365.73 696.87 C 365.49 697.37 365.00 698.36 364.75 698.85 C 364.12 700.23 363.48 701.61 362.86 703.00 C 360.69 707.88 358.28 712.65 355.81 717.38 C 354.81 719.13 354.40 721.11 354.23 723.10 C 355.80 723.77 357.39 724.46 358.96 725.17 C 361.00 726.07 363.06 726.95 365.13 727.82 C 366.77 728.47 368.43 729.12 370.09 729.76 C 400.39 741.52 432.47 748.93 464.92 750.96 C 469.78 751.84 474.74 751.74 479.66 751.57 C 479.35 749.62 479.55 747.44 478.22 745.83 C 467.21 731.94 453.70 720.34 442.00 707.06 C 428.31 693.40 415.20 678.70 406.79 661.10 C 406.25 659.69 405.71 658.28 405.19 656.88 C 404.73 655.60 404.27 654.33 403.81 653.07 C 401.50 645.67 400.34 638.01 399.02 630.40 C 398.56 629.92 397.66 628.96 397.21 628.49 M 573.85 628.54 C 572.60 639.00 570.04 649.31 566.29 659.16 C 559.66 674.46 548.73 687.36 537.23 699.23 C 531.12 705.78 524.91 712.24 518.87 718.86 C 510.64 727.39 503.06 736.53 495.76 745.86 C 494.30 747.40 494.24 749.53 494.06 751.54 C 509.94 752.00 525.70 749.35 541.39 747.28 L 541.96 746.90 C 558.71 744.19 575.15 739.68 591.21 734.25 C 591.92 733.98 593.34 733.43 594.05 733.16 C 595.31 732.67 596.57 732.19 597.84 731.73 C 599.54 731.12 601.22 730.46 602.91 729.83 C 605.99 728.65 609.05 727.42 612.11 726.19 C 614.34 725.21 616.57 724.25 618.81 723.29 C 618.68 722.15 618.56 721.03 618.44 719.92 C 615.80 714.92 613.27 709.84 611.14 704.61 L 610.76 704.32 C 606.71 695.11 602.00 686.22 597.78 677.10 C 595.30 671.66 592.64 666.32 590.18 660.87 C 588.51 657.22 586.84 653.56 585.17 649.92 C 584.38 648.30 583.64 646.67 582.87 645.07 C 581.30 641.69 579.69 638.33 578.24 634.91 C 577.08 632.59 576.09 630.05 573.85 628.54 Z" />
</g>
<g id="#f1eadfff">
</g>
</svg>
